<svg width="358" height="67" viewBox="0 0 358 67" fill="none" xmlns="http://www.w3.org/2000/svg">
<path d="M303.164 51.8573V17.7023H312.456V51.8573H303.164ZM325.506 51.8573V31.7037C325.506 29.7237 324.868 28.1915 323.591 27.1073C322.362 25.9758 320.825 25.4101 318.981 25.4101C317.751 25.4101 316.64 25.6694 315.647 26.188C314.654 26.6594 313.874 27.3665 313.307 28.3094C312.739 29.2523 312.456 30.3837 312.456 31.7037L308.838 29.9358C308.838 27.2958 309.406 25.0094 310.54 23.0765C311.723 21.1437 313.307 19.6587 315.293 18.6215C317.279 17.5373 319.525 16.9951 322.031 16.9951C324.395 16.9951 326.546 17.5373 328.485 18.6215C330.424 19.6587 331.96 21.1437 333.095 23.0765C334.23 24.9623 334.798 27.2487 334.798 29.9358V51.8573H325.506ZM347.848 51.8573V31.7037C347.848 29.7237 347.21 28.1915 345.933 27.1073C344.704 25.9758 343.167 25.4101 341.323 25.4101C340.141 25.4101 339.03 25.6694 337.989 26.188C336.996 26.6594 336.216 27.3665 335.649 28.3094C335.081 29.2523 334.798 30.3837 334.798 31.7037L329.478 30.4308C329.667 27.6965 330.4 25.3394 331.677 23.3594C332.953 21.3323 334.632 19.7765 336.713 18.6923C338.793 17.5608 341.11 16.9951 343.663 16.9951C346.217 16.9951 348.51 17.5373 350.543 18.6215C352.577 19.6587 354.184 21.1673 355.366 23.1473C356.549 25.1273 357.14 27.4844 357.14 30.2187V51.8573H347.848Z" fill="white"/>
<path d="M278.883 52.5643C275.432 52.5643 272.311 51.7865 269.521 50.2307C266.778 48.6279 264.58 46.4829 262.925 43.7957C261.317 41.0615 260.513 38.0207 260.513 34.6736C260.513 31.3265 261.317 28.3329 262.925 25.6929C264.532 23.0057 266.731 20.8843 269.521 19.3286C272.311 17.7257 275.408 16.9243 278.812 16.9243C282.311 16.9243 285.432 17.7257 288.175 19.3286C290.965 20.8843 293.163 23.0057 294.771 25.6929C296.379 28.3329 297.183 31.3265 297.183 34.6736C297.183 38.0207 296.379 41.0615 294.771 43.7957C293.163 46.4829 290.965 48.6279 288.175 50.2307C285.432 51.7865 282.335 52.5643 278.883 52.5643ZM278.812 43.9372C280.562 43.9372 282.099 43.56 283.423 42.8057C284.794 42.0043 285.834 40.92 286.543 39.5529C287.3 38.1386 287.678 36.5357 287.678 34.7443C287.678 32.9529 287.3 31.3736 286.543 30.0065C285.787 28.6393 284.747 27.5786 283.423 26.8243C282.099 26.0229 280.562 25.6222 278.812 25.6222C277.11 25.6222 275.597 26.0229 274.273 26.8243C272.949 27.5786 271.909 28.6393 271.152 30.0065C270.396 31.3736 270.017 32.9529 270.017 34.7443C270.017 36.5357 270.396 38.1386 271.152 39.5529C271.909 40.92 272.949 42.0043 274.273 42.8057C275.597 43.56 277.11 43.9372 278.812 43.9372Z" fill="white"/>
<path d="M238.502 52.5643C235.05 52.5643 231.929 51.7865 229.14 50.2307C226.397 48.6279 224.198 46.4829 222.543 43.7957C220.936 41.0615 220.132 38.0207 220.132 34.6736C220.132 31.3265 220.936 28.3329 222.543 25.6929C224.151 23.0057 226.35 20.8843 229.14 19.3286C231.929 17.7257 235.027 16.9243 238.431 16.9243C241.93 16.9243 245.051 17.7257 247.793 19.3286C250.583 20.8843 252.782 23.0057 254.39 25.6929C255.997 28.3329 256.801 31.3265 256.801 34.6736C256.801 38.0207 255.997 41.0615 254.39 43.7957C252.782 46.4829 250.583 48.6279 247.793 50.2307C245.051 51.7865 241.954 52.5643 238.502 52.5643ZM238.431 43.9372C240.181 43.9372 241.717 43.56 243.041 42.8057C244.413 42.0043 245.453 40.92 246.162 39.5529C246.919 38.1386 247.297 36.5357 247.297 34.7443C247.297 32.9529 246.919 31.3736 246.162 30.0065C245.406 28.6393 244.365 27.5786 243.041 26.8243C241.717 26.0229 240.181 25.6222 238.431 25.6222C236.729 25.6222 235.216 26.0229 233.892 26.8243C232.568 27.5786 231.527 28.6393 230.771 30.0065C230.014 31.3736 229.636 32.9529 229.636 34.7443C229.636 36.5357 230.014 38.1386 230.771 39.5529C231.527 40.92 232.568 42.0043 233.892 42.8057C235.216 43.56 236.729 43.9372 238.431 43.9372Z" fill="white"/>
<path d="M184.883 51.8572V2.14502H194.529V51.8572H184.883ZM191.976 51.8572V43.3007H217.368V51.8572H191.976Z" fill="white"/>
<path d="M169.356 52.5643C167.653 52.5643 166.258 51.9985 165.171 50.8671C164.083 49.7357 163.54 48.345 163.54 46.695C163.54 45.045 164.083 43.6543 165.171 42.5228C166.258 41.3914 167.653 40.8257 169.356 40.8257C171.011 40.8257 172.382 41.3914 173.469 42.5228C174.557 43.6543 175.101 45.045 175.101 46.695C175.101 48.345 174.557 49.7357 173.469 50.8671C172.382 51.9985 171.011 52.5643 169.356 52.5643Z" fill="#B8A893"/>
<path d="M140.984 52.5643C137.39 52.5643 134.199 51.81 131.409 50.3015C128.619 48.7457 126.397 46.6243 124.742 43.9372C123.134 41.25 122.33 38.1857 122.33 34.7443C122.33 31.35 123.11 28.3329 124.671 25.6929C126.278 23.0057 128.453 20.8843 131.196 19.3286C133.938 17.7257 136.988 16.9243 140.346 16.9243C143.656 16.9243 146.564 17.6786 149.07 19.1872C151.623 20.6486 153.609 22.6757 155.028 25.2686C156.493 27.8143 157.226 30.7136 157.226 33.9665C157.226 34.5793 157.179 35.2157 157.084 35.8757C157.037 36.4886 156.919 37.1957 156.73 37.9972L127.933 38.0679V31.1379L152.403 31.0672L148.644 33.9665C148.549 31.9393 148.171 30.2422 147.509 28.875C146.895 27.5079 145.972 26.4707 144.743 25.7636C143.561 25.0093 142.095 24.6322 140.346 24.6322C138.501 24.6322 136.894 25.0565 135.523 25.905C134.151 26.7065 133.087 27.8615 132.331 29.37C131.622 30.8315 131.267 32.5757 131.267 34.6029C131.267 36.6772 131.645 38.4922 132.402 40.0479C133.206 41.5565 134.34 42.735 135.806 43.5836C137.272 44.385 138.974 44.7857 140.913 44.7857C142.663 44.7857 144.247 44.5029 145.665 43.9372C147.084 43.3243 148.313 42.4286 149.353 41.25L154.815 46.695C153.16 48.6279 151.127 50.0893 148.715 51.0793C146.351 52.0693 143.774 52.5643 140.984 52.5643Z" fill="white"/>
<path d="M107.076 51.8574V0.730957H116.367V51.8574H107.076Z" fill="white"/>
<path d="M81.3541 52.14L67.0269 17.7021H77.0985L86.6028 44.0079H83.1982L93.0571 17.7021H103.2L87.9504 52.0693L81.3541 52.14ZM71.8499 66.1414L82.2762 44.1493L87.9504 52.0693L81.7088 66.1414H71.8499Z" fill="white"/>
<path d="M48.0416 51.8573V3.48877H57.3331V51.8573H48.0416ZM40.0269 25.8345V17.7023H65.3479V25.8345H40.0269Z" fill="white"/>
<path d="M18.0864 52.5643C14.0672 52.5643 10.6154 51.8808 7.73106 50.5136C4.89397 49.1465 2.31695 47.0958 0 44.3615L6.38344 37.9972C7.84927 39.93 9.55152 41.4386 11.4902 42.5229C13.4289 43.5601 15.7931 44.0786 18.5829 44.0786C21.089 44.0786 23.075 43.5836 24.5408 42.5936C26.0539 41.6036 26.8105 40.2365 26.8105 38.4922C26.8105 36.9836 26.3849 35.7579 25.5338 34.815C24.6826 33.8722 23.5478 33.0708 22.1293 32.4108C20.758 31.7508 19.2213 31.1615 17.519 30.6429C15.864 30.0772 14.1854 29.4408 12.4832 28.7336C10.8282 28.0265 9.29146 27.1543 7.87291 26.1172C6.50166 25.0329 5.39046 23.6658 4.53934 22.0158C3.68821 20.3186 3.26265 18.1972 3.26265 15.6515C3.26265 12.6343 3.99556 10.065 5.46139 7.94362C6.92722 5.82219 8.93682 4.19576 11.4902 3.06433C14.0436 1.9329 16.9279 1.36719 20.1433 1.36719C23.5478 1.36719 26.6213 2.00362 29.3638 3.27647C32.1064 4.54933 34.3524 6.19933 36.1019 8.22647L29.7185 14.5908C28.2526 12.9879 26.7395 11.8093 25.1791 11.055C23.666 10.3008 21.9401 9.92361 20.0015 9.92361C17.7791 9.92361 16.0295 10.3479 14.7528 11.1965C13.4762 12.045 12.8378 13.2708 12.8378 14.8736C12.8378 16.2408 13.2634 17.3486 14.1145 18.1972C14.9656 19.0458 16.0768 19.7765 17.4481 20.3893C18.8666 21.0022 20.4034 21.5915 22.0583 22.1572C23.7606 22.7229 25.4392 23.3593 27.0942 24.0665C28.7964 24.7736 30.3332 25.6929 31.7044 26.8243C33.123 27.9558 34.2578 29.4172 35.1089 31.2086C35.9601 32.9529 36.3856 35.1215 36.3856 37.7143C36.3856 42.3343 34.7543 45.9643 31.4917 48.6043C28.229 51.2443 23.7606 52.5643 18.0864 52.5643Z" fill="white"/>
</svg>
