<svg width="130" height="25" viewBox="0 0 130 25" fill="none" xmlns="http://www.w3.org/2000/svg">
<path d="M109.911 18.8568V6.43683H113.279V18.8568H109.911ZM118.011 18.8568V11.5283C118.011 10.8083 117.779 10.2511 117.316 9.85683C116.871 9.4454 116.314 9.23969 115.645 9.23969C115.199 9.23969 114.796 9.33397 114.436 9.52255C114.076 9.69397 113.793 9.95112 113.588 10.294C113.382 10.6368 113.279 11.0483 113.279 11.5283L111.968 10.8854C111.968 9.9254 112.173 9.09397 112.585 8.39112C113.013 7.68826 113.588 7.14826 114.308 6.77112C115.028 6.37683 115.842 6.17969 116.751 6.17969C117.608 6.17969 118.388 6.37683 119.091 6.77112C119.793 7.14826 120.351 7.68826 120.762 8.39112C121.173 9.07683 121.379 9.90826 121.379 10.8854V18.8568H118.011ZM126.111 18.8568V11.5283C126.111 10.8083 125.879 10.2511 125.416 9.85683C124.971 9.4454 124.414 9.23969 123.745 9.23969C123.316 9.23969 122.913 9.33397 122.536 9.52255C122.176 9.69397 121.893 9.95112 121.688 10.294C121.482 10.6368 121.379 11.0483 121.379 11.5283L119.451 11.0654C119.519 10.0711 119.785 9.21397 120.248 8.49397C120.711 7.75683 121.319 7.19112 122.074 6.79683C122.828 6.3854 123.668 6.17969 124.593 6.17969C125.519 6.17969 126.351 6.37683 127.088 6.77112C127.825 7.14826 128.408 7.69683 128.836 8.41683C129.265 9.13683 129.479 9.99397 129.479 10.9883V18.8568H126.111Z" fill="white"/>
<path d="M101.108 19.1143C99.8563 19.1143 98.7249 18.8314 97.7135 18.2657C96.7192 17.6829 95.922 16.9029 95.322 15.9257C94.7392 14.9314 94.4478 13.8257 94.4478 12.6086C94.4478 11.3914 94.7392 10.3029 95.322 9.34287C95.9049 8.36573 96.702 7.5943 97.7135 7.02858C98.7249 6.44572 99.8478 6.1543 101.082 6.1543C102.351 6.1543 103.482 6.44572 104.476 7.02858C105.488 7.5943 106.285 8.36573 106.868 9.34287C107.451 10.3029 107.742 11.3914 107.742 12.6086C107.742 13.8257 107.451 14.9314 106.868 15.9257C106.285 16.9029 105.488 17.6829 104.476 18.2657C103.482 18.8314 102.359 19.1143 101.108 19.1143ZM101.082 15.9772C101.716 15.9772 102.273 15.84 102.753 15.5657C103.251 15.2743 103.628 14.88 103.885 14.3829C104.159 13.8686 104.296 13.2857 104.296 12.6343C104.296 11.9829 104.159 11.4086 103.885 10.9114C103.611 10.4143 103.233 10.0286 102.753 9.7543C102.273 9.46287 101.716 9.31715 101.082 9.31715C100.465 9.31715 99.9163 9.46287 99.4363 9.7543C98.9563 10.0286 98.5792 10.4143 98.3049 10.9114C98.0306 11.4086 97.8935 11.9829 97.8935 12.6343C97.8935 13.2857 98.0306 13.8686 98.3049 14.3829C98.5792 14.88 98.9563 15.2743 99.4363 15.5657C99.9163 15.84 100.465 15.9772 101.082 15.9772Z" fill="white"/>
<path d="M86.4676 19.1143C85.2162 19.1143 84.0848 18.8314 83.0733 18.2657C82.0791 17.6829 81.2819 16.9029 80.6819 15.9257C80.099 14.9314 79.8076 13.8257 79.8076 12.6086C79.8076 11.3914 80.099 10.3029 80.6819 9.34287C81.2648 8.36573 82.0619 7.5943 83.0733 7.02858C84.0848 6.44572 85.2076 6.1543 86.4419 6.1543C87.7105 6.1543 88.8419 6.44572 89.8362 7.02858C90.8476 7.5943 91.6448 8.36573 92.2276 9.34287C92.8105 10.3029 93.1019 11.3914 93.1019 12.6086C93.1019 13.8257 92.8105 14.9314 92.2276 15.9257C91.6448 16.9029 90.8476 17.6829 89.8362 18.2657C88.8419 18.8314 87.719 19.1143 86.4676 19.1143ZM86.4419 15.9772C87.0762 15.9772 87.6333 15.84 88.1133 15.5657C88.6105 15.2743 88.9876 14.88 89.2448 14.3829C89.519 13.8686 89.6562 13.2857 89.6562 12.6343C89.6562 11.9829 89.519 11.4086 89.2448 10.9114C88.9705 10.4143 88.5933 10.0286 88.1133 9.7543C87.6333 9.46287 87.0762 9.31715 86.4419 9.31715C85.8248 9.31715 85.2762 9.46287 84.7962 9.7543C84.3162 10.0286 83.939 10.4143 83.6648 10.9114C83.3905 11.4086 83.2533 11.9829 83.2533 12.6343C83.2533 13.2857 83.3905 13.8686 83.6648 14.3829C83.939 14.88 84.3162 15.2743 84.7962 15.5657C85.2762 15.84 85.8248 15.9772 86.4419 15.9772Z" fill="white"/>
<path d="M67.0283 18.8574V0.780273H70.5255V18.8574H67.0283ZM69.5997 18.8574V15.746H78.8055V18.8574H69.5997Z" fill="white"/>
<path d="M61.3991 19.1143C60.782 19.1143 60.2762 18.9086 59.882 18.4971C59.4877 18.0857 59.2905 17.58 59.2905 16.98C59.2905 16.38 59.4877 15.8743 59.882 15.4628C60.2762 15.0514 60.782 14.8457 61.3991 14.8457C61.9991 14.8457 62.4962 15.0514 62.8905 15.4628C63.2848 15.8743 63.482 16.38 63.482 16.98C63.482 17.58 63.2848 18.0857 62.8905 18.4971C62.4962 18.9086 61.9991 19.1143 61.3991 19.1143Z" fill="#B8A893"/>
<path d="M51.113 19.1143C49.8101 19.1143 48.653 18.84 47.6415 18.2914C46.6301 17.7257 45.8244 16.9543 45.2244 15.9772C44.6415 15 44.3501 13.8857 44.3501 12.6343C44.3501 11.4 44.633 10.3029 45.1987 9.34287C45.7815 8.36573 46.5701 7.5943 47.5644 7.02858C48.5587 6.44572 49.6644 6.1543 50.8815 6.1543C52.0815 6.1543 53.1358 6.42858 54.0444 6.97715C54.9701 7.50858 55.6901 8.24573 56.2044 9.18858C56.7358 10.1143 57.0015 11.1686 57.0015 12.3514C57.0015 12.5743 56.9844 12.8057 56.9501 13.0457C56.933 13.2686 56.8901 13.5257 56.8215 13.8172L46.3815 13.8429V11.3229L55.253 11.2972L53.8901 12.3514C53.8558 11.6143 53.7187 10.9972 53.4787 10.5C53.2558 10.0029 52.9215 9.62573 52.4758 9.36858C52.0472 9.0943 51.5158 8.95715 50.8815 8.95715C50.213 8.95715 49.6301 9.11144 49.133 9.42001C48.6358 9.71144 48.2501 10.1314 47.9758 10.68C47.7187 11.2114 47.5901 11.8457 47.5901 12.5829C47.5901 13.3372 47.7272 13.9972 48.0015 14.5629C48.293 15.1114 48.7044 15.54 49.2358 15.8486C49.7672 16.14 50.3844 16.2857 51.0872 16.2857C51.7215 16.2857 52.2958 16.1829 52.8101 15.9772C53.3244 15.7543 53.7701 15.4286 54.1472 15L56.1272 16.98C55.5272 17.6829 54.7901 18.2143 53.9158 18.5743C53.0587 18.9343 52.1244 19.1143 51.113 19.1143Z" fill="white"/>
<path d="M38.8198 18.8571V0.265625H42.1884V18.8571H38.8198Z" fill="white"/>
<path d="M29.4946 18.9604L24.3003 6.4375H27.9517L31.3974 16.0032H30.1632L33.7374 6.4375H37.4146L31.886 18.9346L29.4946 18.9604ZM26.0489 24.0518L29.8289 16.0546L31.886 18.9346L29.6232 24.0518H26.0489Z" fill="white"/>
<path d="M17.4174 18.8571V1.26855H20.786V18.8571H17.4174ZM14.5117 9.39427V6.43713H23.6917V9.39427H14.5117Z" fill="white"/>
<path d="M6.55714 19.1142C5.1 19.1142 3.84857 18.8656 2.80286 18.3685C1.77429 17.8714 0.84 17.1256 0 16.1314L2.31429 13.8171C2.84571 14.5199 3.46286 15.0685 4.16571 15.4628C4.86857 15.8399 5.72571 16.0285 6.73714 16.0285C7.64571 16.0285 8.36572 15.8485 8.89714 15.4885C9.44571 15.1285 9.72 14.6314 9.72 13.9971C9.72 13.4485 9.56571 13.0028 9.25714 12.6599C8.94857 12.3171 8.53714 12.0256 8.02286 11.7856C7.52571 11.5456 6.96857 11.3314 6.35143 11.1428C5.75143 10.9371 5.14286 10.7056 4.52571 10.4485C3.92571 10.1914 3.36857 9.87421 2.85429 9.49707C2.35714 9.10279 1.95429 8.60564 1.64571 8.00564C1.33714 7.3885 1.18286 6.61707 1.18286 5.69136C1.18286 4.59421 1.44857 3.65993 1.98 2.8885C2.51143 2.11707 3.24 1.52564 4.16571 1.11421C5.09143 0.702784 6.13714 0.49707 7.30286 0.49707C8.53714 0.49707 9.65143 0.728499 10.6457 1.19136C11.64 1.65421 12.4543 2.25421 13.0886 2.99136L10.7743 5.30564C10.2429 4.72278 9.69429 4.29421 9.12857 4.01993C8.58 3.74564 7.95429 3.6085 7.25143 3.6085C6.44571 3.6085 5.81143 3.76278 5.34857 4.07136C4.88571 4.37993 4.65429 4.82564 4.65429 5.4085C4.65429 5.90564 4.80857 6.3085 5.11714 6.61707C5.42571 6.92564 5.82857 7.19136 6.32571 7.41421C6.84 7.63707 7.39714 7.85136 7.99714 8.05707C8.61429 8.26278 9.22286 8.49421 9.82286 8.75136C10.44 9.0085 10.9971 9.34278 11.4943 9.75421C12.0086 10.1656 12.42 10.6971 12.7286 11.3485C13.0371 11.9828 13.1914 12.7714 13.1914 13.7142C13.1914 15.3942 12.6 16.7142 11.4171 17.6742C10.2343 18.6342 8.61429 19.1142 6.55714 19.1142Z" fill="white"/>
</svg>
